<?xml version="1.0" encoding="utf-8"?>
<svg xmlns="http://www.w3.org/2000/svg" width="72" height="72" viewBox="0 0 72 72" fill="none">
<rect width="72" height="72" rx="8" fill="white"/>
<path d="M33.9073 27.9006H16.2429C16.1088 27.9006 16 28.0076 16 28.1379V43.8279C16 43.9589 16.1096 44.0653 16.2429 44.0653L26.1652 44.0675C26.1652 48.8413 22.6532 50.2129 18.0307 50.5102C17.9097 50.5176 17.8154 50.6156 17.8154 50.7339V56.7753C17.8154 56.9034 17.925 57.0059 18.056 56.9999C23.3214 56.7573 27.2603 55.5219 29.8834 53.4765C32.7364 51.2513 34.1472 48.0664 34.1509 44.1514V28.1379C34.1509 28.0069 34.0406 27.9006 33.9073 27.9006Z" fill="#00A264"/>
<path d="M55.4014 44.0996H37.7371C37.603 44.0996 37.4941 43.9925 37.4941 43.8623V28.1724C37.4941 28.0413 37.6038 27.9351 37.7371 27.9351L47.6594 27.9327C47.6594 23.1593 44.1473 21.7877 39.525 21.4905C39.4039 21.483 39.3096 21.3849 39.3096 21.2666V15.2249C39.3096 15.0968 39.4192 14.9943 39.5503 15.0002C44.8156 15.2428 48.7545 16.4781 51.3776 18.5235C54.2305 20.7485 55.6413 23.9334 55.6452 27.8481V43.8615C55.6452 43.9925 55.5347 44.0996 55.4014 44.0996Z" fill="#00A264"/>
</svg>